<?xml version="1.0" standalone="no"?>
<!DOCTYPE svg PUBLIC "-//W3C//DTD SVG 20010904//EN"
 "http://www.w3.org/TR/2001/REC-SVG-20010904/DTD/svg10.dtd">
<svg version="1.0" xmlns="http://www.w3.org/2000/svg"
 width="1024.000000pt" height="1024.000000pt" viewBox="0 0 1024.000000 1024.000000"
 preserveAspectRatio="xMidYMid meet">

<g transform="translate(0.000000,1024.000000) scale(0.100000,-0.100000)"
fill="#e50914" stroke="none">
<path d="M7275 8253 c-147 -20 -667 -94 -1005 -143 -228 -34 -536 -78 -685
-100 -148 -21 -409 -60 -580 -85 -170 -25 -400 -59 -510 -75 -110 -16 -337
-50 -505 -74 -168 -25 -535 -79 -817 -121 -341 -50 -531 -82 -569 -96 -82 -31
-167 -115 -188 -188 -23 -79 -20 -142 19 -393 19 -123 43 -273 52 -334 15 -99
17 -293 20 -2157 3 -1675 6 -2054 17 -2080 21 -52 67 -98 121 -123 l50 -24
2440 0 c2434 0 2440 0 2485 21 56 25 86 53 113 104 l22 40 3 1910 c2 1401 0
1921 -9 1951 -14 54 -58 107 -117 142 l-47 27 -1675 3 -1675 2 -18 32 c-10 17
-16 33 -13 35 2 3 289 47 638 99 348 52 797 119 998 149 201 30 644 96 985
146 387 57 641 99 675 112 73 26 141 96 165 167 13 40 16 72 12 129 -6 85
-101 686 -117 740 -25 88 -98 156 -188 177 -31 8 -59 13 -62 12 -3 0 -18 -3
-35 -5z m35 -278 c14 -17 109 -573 110 -637 0 -54 -25 -66 -197 -93 l-148 -23
-80 77 c-44 42 -193 187 -332 322 l-252 245 417 61 c229 33 429 61 443 62 15
0 32 -6 39 -14z m-1188 -517 l330 -323 -114 -17 c-114 -16 -453 -66 -938 -138
l-265 -39 -60 57 c-33 31 -141 136 -240 232 -99 96 -222 215 -273 264 -51 49
-91 90 -90 90 2 1 282 42 623 90 519 74 657 95 693 105 2 1 152 -144 334 -321z
m-2041 -196 c129 -125 277 -268 330 -317 53 -50 97 -92 98 -95 0 -3 -144 -27
-321 -53 -177 -26 -323 -49 -325 -51 -2 -2 10 -26 27 -54 96 -157 180 -381
180 -481 -1 -194 -153 -363 -352 -391 -35 -5 -264 -10 -509 -10 l-447 0 -5
368 c-5 392 -8 426 -72 836 -42 263 -42 271 -11 291 14 9 115 29 257 50 129
18 362 53 519 75 157 23 305 46 330 50 25 4 50 8 56 9 6 0 117 -101 245 -227z
m1894 -1962 l0 -265 -512 -3 -513 -2 0 -225 0 -225 420 0 420 0 0 -260 0 -260
-417 -2 -418 -3 -2 -512 -2 -513 -296 -3 -295 -3 0 1273 0 1273 808 -2 807 -3
0 -265z"/>
<path d="M3075 6886 c-39 -18 -80 -62 -99 -108 -67 -161 100 -321 259 -249
146 66 153 282 13 350 -51 24 -127 27 -173 7z"/>
</g>
</svg>
